<svg width="290" height="309" viewBox="0 0 290 309" fill="none" xmlns="http://www.w3.org/2000/svg">
<path d="M6.33368 33.4224C-1.53209 26.3275 -2.15696 14.1994 4.93799 6.33367C12.0329 -1.53209 24.161 -2.15696 32.0267 4.93799L150.955 112.107C158.821 119.202 159.446 131.33 152.351 139.196C145.256 147.062 133.128 147.687 125.262 140.592L94.323 112.685C91.1959 109.864 86.1955 111.932 85.9751 116.138L76.8803 289.678C76.3259 300.256 67.301 308.382 56.7227 307.828C46.1444 307.273 38.0183 298.248 38.5727 287.67L49.7209 74.9507C49.7999 73.4424 49.1934 71.9791 48.0706 70.969L6.33368 33.4224Z" fill="#1E293B"/>
<path d="M264.315 46.8121C272.025 49.1702 277.437 56.0982 277.859 64.1496L289.586 287.917C290.141 298.495 282.015 307.52 271.436 308.075C260.858 308.629 251.833 300.503 251.279 289.925L243.028 132.486C242.783 127.822 236.848 126.006 234.036 129.736L150.68 240.299C144.303 248.758 132.277 250.445 123.818 244.068C115.36 237.691 113.673 225.665 120.05 217.207L243.39 53.6071C248.244 47.1692 256.605 44.454 264.315 46.8121Z" fill="#1E293B"/>
</svg>
