<svg width="934" height="309" viewBox="0 0 934 309" fill="none" xmlns="http://www.w3.org/2000/svg">
<path d="M685.99 284.469C684.136 284.469 682.636 283.895 681.488 282.745C680.34 281.595 679.766 280.136 679.766 278.367V218.005C679.766 216.147 680.34 214.688 681.488 213.627C682.636 212.477 684.136 211.902 685.99 211.902C687.756 211.902 689.213 212.477 690.36 213.627C691.508 214.688 692.082 216.147 692.082 218.005V278.367C692.082 280.136 691.508 281.595 690.36 282.745C689.213 283.895 687.756 284.469 685.99 284.469Z" fill="#1E293B"/>
<path d="M552.982 282.877C554.042 281.816 554.572 280.357 554.572 278.5V239.364C554.572 235.295 555.807 231.846 558.279 229.016C560.751 226.185 564.106 224.196 568.344 223.046C572.581 221.896 577.392 221.763 582.778 222.648C584.014 222.825 585.161 222.913 586.221 222.913C587.28 222.825 588.207 222.515 589.002 221.984C589.796 221.365 590.326 220.392 590.591 219.066C591.209 216.766 590.282 214.865 587.81 213.361C585.426 211.858 581.807 211.106 576.951 211.106C571.742 211.106 566.975 212.344 562.649 214.821C559.517 216.614 556.824 218.871 554.572 221.591V217.872C554.572 215.926 554.042 214.467 552.982 213.494C552.011 212.433 550.511 211.902 548.48 211.902C546.626 211.902 545.169 212.433 544.11 213.494C543.051 214.555 542.521 216.015 542.521 217.872V278.5C542.521 280.445 543.051 281.949 544.11 283.01C545.169 283.983 546.626 284.469 548.48 284.469C550.511 284.469 552.011 283.939 552.982 282.877Z" fill="#1E293B"/>
<path d="M398.421 282.347C403.629 284.116 409.147 285 414.974 285C420.977 285 426.097 284.071 430.335 282.214C434.572 280.357 437.794 277.836 440.002 274.652C442.297 271.38 443.445 267.71 443.445 263.641C443.445 260.192 442.606 257.096 440.929 254.355C439.251 251.613 436.47 249.225 432.586 247.191C428.79 245.157 423.581 243.52 416.96 242.282C412.193 241.398 408.529 240.425 405.969 239.364C403.409 238.214 401.643 236.976 400.672 235.649C399.789 234.322 399.348 232.774 399.348 231.006C399.348 228.264 400.716 226.097 403.453 224.505C406.278 222.913 409.809 222.117 414.047 222.117C417.578 222.117 420.668 222.604 423.316 223.576C426.053 224.461 428.525 226.053 430.732 228.352C431.88 229.591 433.292 230.342 434.969 230.608C436.735 230.873 438.28 230.608 439.604 229.812C440.929 228.839 441.635 227.645 441.723 226.23C441.9 224.815 441.414 223.444 440.266 222.117C437.618 218.756 434.087 216.147 429.673 214.29C425.258 212.344 420.138 211.371 414.311 211.371C409.721 211.371 405.351 212.123 401.202 213.627C397.141 215.042 393.83 217.253 391.27 220.26C388.798 223.178 387.562 226.893 387.562 231.404C387.562 236.445 389.592 240.734 393.653 244.272C397.714 247.81 404.203 250.419 413.12 252.099C420.006 253.249 424.817 254.841 427.554 256.875C430.291 258.821 431.659 261.253 431.659 264.172C431.571 267.002 430.114 269.39 427.289 271.336C424.552 273.193 420.315 274.122 414.576 274.122C410.515 274.122 406.763 273.414 403.32 271.999C399.966 270.584 397.405 268.903 395.64 266.958C394.58 265.72 393.256 265.012 391.667 264.835C390.078 264.658 388.533 265.145 387.032 266.294C385.62 267.444 384.825 268.815 384.649 270.407C384.472 271.999 384.958 273.458 386.105 274.785C389.107 277.969 393.212 280.49 398.421 282.347Z" fill="#1E293B"/>
<path fill-rule="evenodd" clip-rule="evenodd" d="M474.831 280.357C480.481 283.452 486.97 285 494.297 285C498.358 285 502.596 284.248 507.01 282.745C511.512 281.153 515.264 279.163 518.266 276.775C519.59 275.714 520.208 274.475 520.12 273.06C520.031 271.557 519.325 270.186 518.001 268.948C516.942 268.063 515.706 267.665 514.293 267.754C512.881 267.754 511.556 268.24 510.32 269.213C508.555 270.628 506.127 271.866 503.037 272.928C500.036 273.989 497.122 274.52 494.297 274.52C489.089 274.52 484.498 273.37 480.525 271.07C476.641 268.771 473.551 265.675 471.256 261.784C469.667 258.919 468.65 255.779 468.205 252.365H519.722C521.4 252.365 522.724 251.878 523.695 250.905C524.755 249.844 525.284 248.562 525.284 247.058C525.284 240.071 523.96 233.924 521.312 228.618C518.663 223.223 514.867 219.022 509.923 216.015C504.979 212.919 499.109 211.371 492.311 211.371C485.337 211.371 479.201 212.963 473.904 216.147C468.607 219.243 464.458 223.576 461.456 229.148C458.455 234.632 456.954 241 456.954 248.252C456.954 255.416 458.543 261.784 461.721 267.356C464.899 272.839 469.269 277.173 474.831 280.357ZM468.396 242.547C468.86 239.743 469.68 237.134 470.858 234.72C472.8 230.74 475.581 227.601 479.201 225.301C482.909 223.002 487.279 221.852 492.311 221.852C496.902 221.852 500.83 222.913 504.097 225.036C507.363 227.158 509.879 230.077 511.645 233.792C512.913 236.459 513.748 239.378 514.151 242.547H468.396Z" fill="#1E293B"/>
<path d="M624.174 280.357C625.499 283.01 627.441 284.337 630.001 284.337C632.561 284.337 634.459 283.01 635.695 280.357L664.034 219.729C664.74 218.403 664.828 217.076 664.299 215.749C663.769 214.334 662.798 213.273 661.385 212.565C659.885 211.946 658.384 211.858 656.883 212.3C655.382 212.742 654.279 213.671 653.572 215.086L629.913 266.972L605.9 215.086C605.194 213.759 604.134 212.875 602.722 212.433C601.309 211.902 599.941 211.99 598.617 212.698C597.028 213.405 595.968 214.423 595.439 215.749C594.909 217.076 594.997 218.447 595.703 219.862L624.174 280.357Z" fill="#1E293B"/>
<path d="M731.395 280.224C736.868 283.408 743.092 285 750.067 285C759.689 285 767.679 282.037 774.035 276.112C775.183 275.05 775.668 273.812 775.492 272.397C775.315 270.982 774.565 269.699 773.241 268.55C772.181 267.665 770.945 267.267 769.533 267.356C768.209 267.444 766.929 268.019 765.693 269.08C763.662 270.849 761.367 272.132 758.807 272.928C756.246 273.724 753.333 274.122 750.067 274.122C745.299 274.122 741.062 273.016 737.354 270.805C733.646 268.505 730.733 265.41 728.614 261.518C726.584 257.627 725.568 253.205 725.568 248.252C725.568 243.034 726.539 238.523 728.482 234.72C730.512 230.829 733.293 227.777 736.824 225.566C740.444 223.355 744.593 222.25 749.272 222.25C756.158 222.25 761.941 224.77 766.62 229.812C767.679 231.05 768.915 231.802 770.327 232.067C771.74 232.332 772.976 232.067 774.035 231.271C775.536 230.21 776.419 228.971 776.684 227.556C777.037 226.141 776.64 224.815 775.492 223.576C772.049 219.508 768.12 216.457 763.706 214.423C759.292 212.388 754.481 211.371 749.272 211.371C742.298 211.371 736.162 212.963 730.865 216.147C725.568 219.243 721.375 223.576 718.285 229.148C715.283 234.72 713.783 241.088 713.783 248.252C713.783 255.239 715.328 261.518 718.417 267.09C721.596 272.574 725.921 276.952 731.395 280.224Z" fill="#1E293B"/>
<path fill-rule="evenodd" clip-rule="evenodd" d="M830.399 285C823.072 285 816.583 283.452 810.933 280.357C805.371 277.173 801.001 272.839 797.823 267.356C794.645 261.784 793.056 255.416 793.056 248.252C793.056 241 794.556 234.632 797.558 229.148C800.56 223.576 804.709 219.243 810.006 216.147C815.303 212.963 821.438 211.371 828.413 211.371C835.21 211.371 841.081 212.919 846.025 216.015C850.969 219.022 854.765 223.223 857.413 228.618C860.062 233.924 861.386 240.071 861.386 247.058C861.386 248.562 860.856 249.844 859.797 250.905C858.826 251.878 857.502 252.365 855.824 252.365H804.307C804.752 255.779 805.769 258.919 807.357 261.784C809.653 265.675 812.742 268.771 816.627 271.07C820.6 273.37 825.19 274.52 830.399 274.52C833.224 274.52 836.137 273.989 839.139 272.928C842.229 271.866 844.657 270.628 846.422 269.213C847.658 268.24 848.982 267.754 850.395 267.754C851.807 267.665 853.043 268.063 854.103 268.948C855.427 270.186 856.133 271.557 856.221 273.06C856.31 274.475 855.692 275.714 854.368 276.775C851.366 279.163 847.614 281.153 843.112 282.745C838.697 284.248 834.46 285 830.399 285ZM806.96 234.72C805.782 237.134 804.961 239.743 804.498 242.547H850.253C849.85 239.378 849.014 236.459 847.746 233.792C845.981 230.077 843.465 227.158 840.198 225.036C836.932 222.913 833.003 221.852 828.413 221.852C823.38 221.852 819.011 223.002 815.303 225.301C811.683 227.601 808.902 230.74 806.96 234.72Z" fill="#1E293B"/>
<path d="M888.025 282.347C893.233 284.116 898.751 285 904.578 285C910.581 285 915.701 284.071 919.939 282.214C924.176 280.357 927.399 277.836 929.606 274.652C931.901 271.38 933.049 267.71 933.049 263.641C933.049 260.192 932.21 257.096 930.533 254.355C928.855 251.613 926.074 249.225 922.19 247.191C918.394 245.157 913.185 243.52 906.564 242.282C901.797 241.398 898.133 240.425 895.573 239.364C893.013 238.214 891.247 236.976 890.276 235.649C889.393 234.322 888.952 232.774 888.952 231.006C888.952 228.264 890.32 226.097 893.057 224.505C895.882 222.913 899.413 222.117 903.651 222.117C907.182 222.117 910.272 222.604 912.92 223.576C915.657 224.461 918.129 226.053 920.336 228.352C921.484 229.591 922.896 230.342 924.574 230.608C926.339 230.873 927.884 230.608 929.208 229.812C930.533 228.839 931.239 227.645 931.327 226.23C931.504 224.815 931.018 223.444 929.871 222.117C927.222 218.756 923.691 216.147 919.277 214.29C914.863 212.344 909.742 211.371 903.916 211.371C899.325 211.371 894.955 212.123 890.806 213.627C886.745 215.042 883.434 217.253 880.874 220.26C878.402 223.178 877.166 226.893 877.166 231.404C877.166 236.445 879.197 240.734 883.258 244.272C887.319 247.81 893.807 250.419 902.724 252.099C909.61 253.249 914.421 254.841 917.158 256.875C919.895 258.821 921.263 261.253 921.263 264.172C921.175 267.002 919.718 269.39 916.893 271.336C914.156 273.193 909.919 274.122 904.18 274.122C900.12 274.122 896.367 273.414 892.924 271.999C889.57 270.584 887.01 268.903 885.244 266.958C884.185 265.72 882.86 265.012 881.271 264.835C879.682 264.658 878.137 265.145 876.636 266.294C875.224 267.444 874.429 268.815 874.253 270.407C874.076 271.999 874.562 273.458 875.709 274.785C878.711 277.969 882.816 280.49 888.025 282.347Z" fill="#1E293B"/>
<path d="M501.136 170.193C501.136 173.754 502.304 176.977 504.726 179.577L504.826 179.684L504.934 179.784C507.529 182.211 510.746 183.381 514.3 183.381C517.91 183.381 521.215 182.245 523.772 179.682L523.824 179.63L523.874 179.577C526.296 176.977 527.464 173.754 527.464 170.193V120.146C527.464 111.615 525.926 104.091 522.641 97.7489C519.501 91.3487 514.978 86.3805 509.066 83.0153C503.224 79.6898 496.602 78.084 489.322 78.084C481.122 78.084 473.649 79.8592 467.012 83.5099L466.996 83.5186L466.981 83.5273C464 85.1998 461.312 87.1798 458.925 89.4614C456.618 86.9037 453.943 84.7472 450.9 83.0153C445.058 79.6898 438.436 78.084 431.156 78.084C423.582 78.084 416.689 79.8939 410.603 83.6054C409.999 83.9731 409.41 84.3553 408.833 84.7518C408.386 84.0748 407.865 83.4331 407.265 82.8325C404.708 80.2701 401.403 79.1339 397.793 79.1339C394.239 79.1339 391.022 80.3041 388.427 82.7304L388.373 82.7806L388.321 82.8325C385.763 85.395 384.629 88.7056 384.629 92.3219V170.193C384.629 173.754 385.797 176.977 388.219 179.577L388.319 179.684L388.427 179.784C391.022 182.211 394.239 183.381 397.793 183.381C401.403 183.381 404.708 182.245 407.265 179.682L407.317 179.63L407.367 179.577C409.789 176.977 410.957 173.754 410.957 170.193V120.845C410.957 115.247 412.621 110.977 415.735 107.674C418.846 104.373 422.712 102.71 427.662 102.71C432.529 102.71 436.104 104.183 438.802 106.886L438.826 106.911L438.852 106.935C441.316 109.324 442.97 113.417 442.97 120.146V170.193C442.97 173.754 444.138 176.977 446.56 179.577L446.66 179.684L446.768 179.784C449.363 182.211 452.58 183.381 456.134 183.381C459.744 183.381 463.049 182.245 465.606 179.682L465.658 179.63L465.708 179.577C468.13 176.977 469.298 173.754 469.298 170.193V120.845C469.298 115.225 470.918 110.945 473.923 107.65C477.03 104.366 480.89 102.71 485.829 102.71C490.695 102.71 494.27 104.183 496.968 106.886L496.993 106.911L497.018 106.935C499.482 109.324 501.136 113.417 501.136 120.146V170.193Z" fill="#1E293B"/>
<path d="M553.893 179.402L553.993 179.509L554.1 179.61C556.695 182.036 559.912 183.206 563.467 183.206C567.076 183.206 570.381 182.07 572.939 179.507L572.991 179.455L573.041 179.402C575.463 176.802 576.631 173.579 576.631 170.018V92.1469C576.631 88.5306 575.497 85.22 572.939 82.6575C570.381 80.0951 567.076 78.9589 563.467 78.9589C559.912 78.9589 556.695 80.1291 554.1 82.5554L554.047 82.6056L553.995 82.6575C551.437 85.22 550.303 88.5306 550.303 92.1469V170.018C550.303 173.579 551.471 176.802 553.893 179.402Z" fill="#1E293B"/>
<path d="M552.172 67.2597L552.247 67.339L552.326 67.4143C555.427 70.3654 559.206 71.9115 563.467 71.9115C567.733 71.9115 571.496 70.3584 574.511 67.338C577.596 64.2476 579.251 60.4378 579.251 56.0987C579.251 51.7883 577.615 48.0235 574.512 45.0338C571.528 41.9253 567.769 40.2859 563.467 40.2859C559.136 40.2859 555.333 41.944 552.248 45.0344C549.233 48.0549 547.683 51.8243 547.683 56.0987C547.683 60.3676 549.226 64.1533 552.172 67.2597Z" fill="#1E293B"/>
<path d="M601.469 165.126L601.477 165.143L601.485 165.161C603.983 170.561 607.53 174.959 612.15 178.226C616.869 181.563 622.279 183.206 628.228 183.206H628.578C632.731 183.206 636.54 182.229 639.661 179.925C642.87 177.556 644.711 174.225 644.711 170.193C644.711 166.753 643.675 163.585 641.36 161.054C639.085 158.433 636.019 157.18 632.595 157.18H628.228C627.59 157.18 626.716 156.984 625.616 155.095C624.471 153.129 623.75 150.373 623.75 146.569V51.024C623.75 47.4644 622.579 44.2348 620.058 41.7096C617.538 39.1844 614.314 38.011 610.761 38.011C607.208 38.011 603.984 39.1844 601.463 41.7096C598.943 44.2348 597.772 47.4644 597.772 51.024V146.569C597.772 153.372 598.968 159.587 601.469 165.126Z" fill="#1E293B"/>
<path fill-rule="evenodd" clip-rule="evenodd" d="M667.255 176.937L667.277 176.951L667.3 176.965C674.775 181.613 683.19 183.906 692.426 183.906C701.663 183.906 710.077 181.613 717.552 176.965L717.575 176.951L717.597 176.937C719.229 175.894 720.784 174.772 722.261 173.573C722.782 175.798 723.843 177.828 725.472 179.577L725.572 179.684L725.68 179.784C728.275 182.211 731.492 183.381 735.046 183.381C738.599 183.381 741.823 182.208 744.344 179.682C746.921 177.1 748.21 173.843 748.21 170.193V128.372L748.146 128.344C747.743 119.543 745.437 111.463 741.174 104.184C736.62 96.2082 730.392 89.8995 722.533 85.3229C714.606 80.5895 705.697 78.259 695.919 78.259C686.135 78.259 677.175 80.5925 669.142 85.3167C661.282 89.8919 654.998 96.196 650.328 104.162L650.316 104.184L650.303 104.206C645.711 112.256 643.454 121.28 643.454 131.17C643.454 140.998 645.508 149.972 649.704 157.997L649.723 158.033L649.742 158.069C654.036 165.912 659.881 172.225 667.255 176.937ZM722.581 131.17C722.581 136.706 721.39 141.599 719.076 145.94C716.75 150.189 713.601 153.54 709.592 156.058C705.664 158.41 701.147 159.63 695.919 159.63C690.834 159.63 686.301 158.422 682.227 156.045C678.222 153.526 675.011 150.167 672.57 145.906C670.268 141.574 669.083 136.692 669.083 131.17C669.083 125.5 670.282 120.625 672.57 116.433C675.022 112.037 678.234 108.694 682.214 106.302L682.227 106.294L682.24 106.286C686.319 103.795 690.845 102.535 695.919 102.535C701.128 102.535 705.633 103.803 709.559 106.262L709.592 106.282L709.625 106.302C713.593 108.687 716.734 112.013 719.067 116.382L719.076 116.4L719.087 116.419C721.38 120.614 722.581 125.493 722.581 131.17Z" fill="#1E293B"/>
<path d="M6.33368 33.4224C-1.53209 26.3275 -2.15696 14.1994 4.93799 6.33367C12.0329 -1.53209 24.161 -2.15696 32.0267 4.93799L150.955 112.107C158.821 119.202 159.446 131.33 152.351 139.196C145.256 147.062 133.128 147.687 125.262 140.592L94.323 112.685C91.1959 109.864 86.1955 111.932 85.9751 116.138L76.8803 289.678C76.3259 300.256 67.301 308.382 56.7227 307.828C46.1444 307.273 38.0183 298.248 38.5727 287.67L49.7209 74.9507C49.7999 73.4424 49.1934 71.9791 48.0706 70.969L6.33368 33.4224Z" fill="#1E293B"/>
<path d="M264.315 46.8121C272.025 49.1702 277.437 56.0982 277.859 64.1496L289.586 287.917C290.141 298.495 282.015 307.52 271.436 308.075C260.858 308.629 251.833 300.503 251.279 289.925L243.028 132.486C242.783 127.822 236.848 126.006 234.036 129.736L150.68 240.299C144.303 248.758 132.277 250.445 123.818 244.068C115.36 237.691 113.673 225.665 120.05 217.207L243.39 53.6071C248.244 47.1692 256.605 44.454 264.315 46.8121Z" fill="#1E293B"/>
</svg>
